<svg xmlns="http://www.w3.org/2000/svg" width="38" height="38" viewBox="0 0 38 38">
  <g id="Group_5341" data-name="Group 5341" transform="translate(-24 -54)">
    <circle id="Ellipse_11" data-name="Ellipse 11" cx="19" cy="19" r="19" transform="translate(24 54)" fill="rgba(0,93,221,0.1)" opacity="0"/>
    <g id="Icon_left" transform="translate(36 66.225)">
      <path id="Path" d="M9.077,15.613a1.23,1.23,0,0,0,0-1.741L2.914,8.258,9.077,2.135A1.232,1.232,0,0,0,7.334.394L.361,7.326A1.227,1.227,0,0,0,0,8.258a1.227,1.227,0,0,0,.359.932l6.973,6.423A1.233,1.233,0,0,0,9.077,15.613Z" transform="translate(-0.719 -1.258)"/>
      <path id="Path_12849" data-name="Path 12849" d="M-.059.481H13.929" transform="translate(1.5 6.5)" fill="none" stroke="#000" stroke-linecap="round" stroke-width="2"/>
    </g>
  </g>
</svg>
