<svg xmlns="http://www.w3.org/2000/svg" width="19.496" height="19.496" viewBox="0 0 19.496 19.496">
  <path id="close_eye" d="M2.214,2.214a.731.731,0,0,0-.071.952l.071.082L6.147,7.181a9.735,9.735,0,0,0-3.856,5.6.731.731,0,1,0,1.418.355A8.276,8.276,0,0,1,7.2,8.233L8.964,10a3.9,3.9,0,0,0,5.514,5.514l5.77,5.77a.731.731,0,0,0,1.1-.952l-.071-.082-5.96-5.96h0l-1.17-1.168-2.8-2.8h0L8.55,7.515v0l-1.1-1.1-4.2-4.2A.731.731,0,0,0,2.214,2.214ZM10,11.032l3.446,3.446A2.437,2.437,0,0,1,10,11.032Zm1.751-5.62a9.74,9.74,0,0,0-2.816.414l1.206,1.205a8.293,8.293,0,0,1,9.65,6.114.731.731,0,1,0,1.419-.354A9.751,9.751,0,0,0,11.748,5.412Zm.19,3.421,3.706,3.7A3.9,3.9,0,0,0,11.938,8.833Z" transform="translate(-2 -2)" fill="#707070"/>
</svg>
