<svg xmlns="http://www.w3.org/2000/svg" width="14.709" height="14.709" viewBox="0 0 14.709 14.709">
  <g id="Filter_icon" data-name="Filter icon" transform="translate(0 0)">
    <path id="Path_32833" data-name="Path 32833" d="M.613,2.911H2.29a2.285,2.285,0,0,0,4.41,0h7.4a.613.613,0,1,0,0-1.226H6.7a2.285,2.285,0,0,0-4.41,0H.613a.613.613,0,1,0,0,1.226ZM4.494,1.226A1.073,1.073,0,1,1,3.422,2.3,1.073,1.073,0,0,1,4.494,1.226Z" fill="#1d3857"/>
    <path id="Path_32834" data-name="Path 32834" d="M14.1,9.935H12.419a2.284,2.284,0,0,0-4.409,0H.613a.613.613,0,0,0,0,1.226h7.4a2.284,2.284,0,0,0,4.409,0H14.1a.613.613,0,0,0,0-1.226ZM10.215,11.62a1.073,1.073,0,1,1,1.073-1.073,1.073,1.073,0,0,1-1.073,1.073Z" transform="translate(0 -3.193)" fill="#1d3857"/>
    <path id="Path_32835" data-name="Path 32835" d="M14.1,18.185H6.7a2.285,2.285,0,0,0-4.41,0H.613a.613.613,0,1,0,0,1.226H2.29a2.285,2.285,0,0,0,4.41,0h7.4a.613.613,0,1,0,0-1.226Zm-9.6,1.685A1.073,1.073,0,1,1,5.567,18.8,1.073,1.073,0,0,1,4.494,19.871Z" transform="translate(0 -6.388)" fill="#1d3857"/>
  </g>
</svg>
