<svg xmlns="http://www.w3.org/2000/svg" width="30" height="30" viewBox="0 0 30 30">
  <g id="HIstory_black" data-name="HIstory black" transform="translate(-494 -933)">
    <rect id="Rectangle_17542" data-name="Rectangle 17542" width="30" height="30" transform="translate(494 933)" fill="none"/>
    <g id="receipt" transform="translate(497 934.5)">
      <path id="Path_32179" data-name="Path 32179" d="M16,3H8A5.006,5.006,0,0,0,3,8V23a1,1,0,0,0,1.564.825L6.67,22.386l2.106,1.439a1,1,0,0,0,1.13,0l2.1-1.439,2.1,1.439a1,1,0,0,0,1.131,0l2.1-1.438,2.1,1.437A1,1,0,0,0,21,23V8A5.006,5.006,0,0,0,16,3Zm3,18.1-1.1-.752a1,1,0,0,0-1.132,0l-2.1,1.439-2.1-1.439a1,1,0,0,0-1.131,0l-2.1,1.439-2.1-1.439a1,1,0,0,0-1.129,0L5,21.1V8A3,3,0,0,1,8,5h8a3,3,0,0,1,3,3Z" fill="#919191" stroke="#fff" stroke-width="0.5"/>
      <rect id="Rectangle_17483" data-name="Rectangle 17483" width="10" height="2" rx="1" transform="translate(7 10)" fill="#919191" stroke="#fff" stroke-width="0.5"/>
      <rect id="Rectangle_17484" data-name="Rectangle 17484" width="8" height="2" rx="1" transform="translate(7 14)" fill="#919191" stroke="#fff" stroke-width="0.5"/>
    </g>
  </g>
</svg>
