<svg xmlns="http://www.w3.org/2000/svg" width="30" height="30" viewBox="0 0 30 30">
  <g id="home_black" data-name="home black" transform="translate(-494 -933)">
    <rect id="Rectangle_17542" data-name="Rectangle 17542" width="30" height="30" transform="translate(494 933)" fill="none"/>
    <path id="house-blank" d="M17.937,5.884,11.208.613a2.766,2.766,0,0,0-3.415,0L1.062,5.885A2.761,2.761,0,0,0,0,8.069V19.023H19V8.069a2.762,2.762,0,0,0-1.063-2.185Zm-.52,11.554H1.583V8.069a.4.4,0,0,1,.152-.312L9.256,1.694a.391.391,0,0,1,.487,0l7.52,6.062a.4.4,0,0,1,.153.313v9.37Z" transform="translate(499.5 938.477)" fill="#919191"/>
  </g>
</svg>
