<svg xmlns="http://www.w3.org/2000/svg" width="46.056" height="25.633" viewBox="0 0 56.056 35.633">
  <g id="icon" transform="translate(-28 -66.551)">
    <g id="Group_19917" data-name="Group 19917" transform="translate(28 66.551)">
      <g id="Group_19913" data-name="Group 19913" transform="translate(0 0)">
        <g id="Group_19910" data-name="Group 19910" transform="translate(9.896 0)">
          <path id="Path_32167" data-name="Path 32167" d="M462.645,279.368s-3.5-7.573-6.374-8.473l-6.22,6.555s7,6.781,6.41,14.193c0,0-1.489-8.812-9.375-13.741l8.8-9.27S462.216,272.885,462.645,279.368Z" transform="translate(-438.393 -268.631)" fill="#00baa3"/>
          <path id="Path_32168" data-name="Path 32168" d="M414.035,292.46l-6.694,5.644s8.37,4.814,10.676,14.045c0,0-3.062-7.463-13.641-13.594l7.951-6.841A15.375,15.375,0,0,0,414.035,292.46Z" transform="translate(-401.187 -288.74)" fill="#00baa3"/>
          <path id="Path_32169" data-name="Path 32169" d="M382.767,350.153l-3.143,2.684c11.469,4.279,16.545,10.954,16.545,10.954-6.146-9.442-13.58-11.406-13.58-11.406l1.59-1.377Z" transform="translate(-379.624 -339.648)" fill="#00baa3"/>
          <rect id="Rectangle_17481" data-name="Rectangle 17481" width="6.896" height="0.478" transform="matrix(0.698, -0.716, 0.716, 0.698, 13.832, 9.142)" fill="#00baa3"/>
          <rect id="Rectangle_17482" data-name="Rectangle 17482" width="6.896" height="0.478" transform="matrix(0.698, -0.716, 0.716, 0.698, 14.953, 10.462)" fill="#00baa3"/>
          <path id="Path_32170" data-name="Path 32170" d="M502.935,346.116l-.343-.334,2.257-2.117.343.334Z" transform="translate(-486.747 -333.997)" fill="#00baa3"/>
          <path id="Path_32171" data-name="Path 32171" d="M509.594,354.49l-.343-.334,2.257-2.117.343.334Z" transform="translate(-492.548 -341.292)" fill="#00baa3"/>
          <path id="Path_32172" data-name="Path 32172" d="M514.756,364.667l-.343-.334,2.257-2.117.342.334Z" transform="translate(-497.044 -350.158)" fill="#00baa3"/>
        </g>
        <g id="Group_19912" data-name="Group 19912" transform="translate(29.167 2.677)">
          <path id="Path_32173" data-name="Path 32173" d="M550.494,339.313s0,.537-.012.537c-1.664,0-13.879,2.237-21.3,10l8.541-14.518a13.1,13.1,0,0,1,7.266.373A14.465,14.465,0,0,1,550.494,339.313Z" transform="translate(-529.182 -329.111)" fill="#00baa3"/>
          <g id="Group_19911" data-name="Group 19911" transform="translate(8.373 0)">
            <path id="Path_32174" data-name="Path 32174" d="M601.665,300.951l-6.182,4.181-1.325.643c3.976-1.4,10.585,1.119,12.95,3.917l-.323-.908-2.779-7.138A3.276,3.276,0,0,1,601.665,300.951Z" transform="translate(-594.158 -299.464)" fill="#f29220"/>
            <path id="Path_32175" data-name="Path 32175" d="M654.888,291.586a2.673,2.673,0,0,1-1.334-.054,2.448,2.448,0,0,1-.883-.5c-.151-.132-.148-.17,0-.305.373-.349.744-.7,1.117-1.049a2.856,2.856,0,0,1,.225-.181c.2-.151.337-.106.4.135.122.49.242.981.363,1.471C654.805,291.255,654.844,291.408,654.888,291.586Z" transform="translate(-645.033 -289.408)" fill="#424242"/>
          </g>
          <path id="Path_32176" data-name="Path 32176" d="M627.832,304.5l-4.288,4.035a15.643,15.643,0,0,1,2.977.614l1.431-4.579S627.844,304.538,627.832,304.5Z" transform="translate(-611.385 -302.554)" fill="#f9ae4b"/>
          <path id="Path_32177" data-name="Path 32177" d="M659.7,307.006l1.635,6.437a18.825,18.825,0,0,0-2.963-1.618L659.557,307S659.666,307.032,659.7,307.006Z" transform="translate(-641.722 -304.733)" fill="#f9ae4b"/>
        </g>
        <path id="Path_32178" data-name="Path 32178" d="M352.886,369.819s-18.821,2.608-28.388,14.5c-9.244-11.791-27.667-15.239-27.667-15.239a37.759,37.759,0,0,1,5.763,2.511c13.069,6.989,21.9,20.469,21.9,20.469l4.947-6.529C334.511,380.143,342.929,372.709,352.886,369.819Z" transform="translate(-296.83 -356.425)" fill="#00baa3"/>
      </g>
    </g>
  </g>
</svg>
