<svg xmlns="http://www.w3.org/2000/svg" width="40" height="40" viewBox="0 0 40 40">
  <g id="round_login_button_with_gradient" data-name="round login button with gradient" transform="translate(41.643)">
    <rect id="button_shape_round" data-name="button shape round" width="40" height="40" rx="20" transform="translate(-41.643)" fill="#fd7522"/>
    <g id="Group_19536" data-name="Group 19536" transform="translate(7.805 9.322)">
      <g id="Group_19735" data-name="Group 19735" transform="translate(-39)">
        <path id="Path_32124" data-name="Path 32124" d="M9.552,0A9.564,9.564,0,0,0,0,9.552v8.955a.6.6,0,0,0,.6.6H9.552a9.552,9.552,0,0,0,0-19.1Z" fill="#fff"/>
        <g id="Path_32181" data-name="Path 32181" transform="translate(3.077 4.122)" fill="#fd7522">
          <path d="M 7.011323928833008 7.67194938659668 L 2.727694034576416 7.67194938659668 C 2.377303838729858 7.67194938659668 2.092233896255493 7.386889457702637 2.092233896255493 7.036499500274658 C 2.092233896255493 6.68610954284668 2.377303838729858 6.401049613952637 2.727694034576416 6.401049613952637 L 7.011323928833008 6.401049613952637 C 7.361713886260986 6.401049613952637 7.646783828735352 6.68610954284668 7.646783828735352 7.036499500274658 C 7.646783828735352 7.386889457702637 7.361713886260986 7.67194938659668 7.011323928833008 7.67194938659668 Z M 10.22405433654785 4.459249496459961 L 4.873854160308838 4.459249496459961 L 2.727694034576416 4.459249496459961 C 2.377303838729858 4.459249496459961 2.092233896255493 4.174189567565918 2.092233896255493 3.823799610137939 C 2.092233896255493 3.473409652709961 2.377303838729858 3.188349485397339 2.727694034576416 3.188349485397339 L 10.22405433654785 3.188349485397339 C 10.57444381713867 3.188349485397339 10.8595142364502 3.473409652709961 10.8595142364502 3.823799610137939 C 10.8595142364502 4.174189567565918 10.57444381713867 4.459249496459961 10.22405433654785 4.459249496459961 Z" stroke="none"/>
          <path d="M 7.011323928833008 7.571949481964111 C 7.306903839111328 7.571949481964111 7.546783924102783 7.332069396972656 7.546783924102783 7.036499500274658 C 7.546783924102783 6.74092960357666 7.306903839111328 6.501049518585205 7.011323928833008 6.501049518585205 L 2.727694034576416 6.501049518585205 C 2.432113885879517 6.501049518585205 2.192234039306641 6.74092960357666 2.192234039306641 7.036499500274658 C 2.192234039306641 7.332069396972656 2.432113885879517 7.571949481964111 2.727694034576416 7.571949481964111 L 7.011323928833008 7.571949481964111 M 10.22405433654785 4.359249591827393 C 10.51963424682617 4.359249591827393 10.75951385498047 4.119369506835938 10.75951385498047 3.823799610137939 C 10.75951385498047 3.528229475021362 10.51963424682617 3.288349628448486 10.22405433654785 3.288349628448486 L 2.727694034576416 3.288349628448486 C 2.432113885879517 3.288349628448486 2.192234039306641 3.528229475021362 2.192234039306641 3.823799610137939 C 2.192234039306641 4.119369506835938 2.432113885879517 4.359249591827393 2.727694034576416 4.359249591827393 L 10.22405433654785 4.359249591827393 M 7.011323928833008 7.771949768066406 L 2.727694034576416 7.771949768066406 C 2.322164058685303 7.771949768066406 1.992233991622925 7.442029476165771 1.992233991622925 7.036499500274658 C 1.992233991622925 6.630969524383545 2.322164058685303 6.301049709320068 2.727694034576416 6.301049709320068 L 7.011323928833008 6.301049709320068 C 7.416853904724121 6.301049709320068 7.74678373336792 6.630969524383545 7.74678373336792 7.036499500274658 C 7.74678373336792 7.442029476165771 7.416853904724121 7.771949768066406 7.011323928833008 7.771949768066406 Z M 10.22405433654785 4.559249401092529 L 2.727694034576416 4.559249401092529 C 2.322164058685303 4.559249401092529 1.992233991622925 4.229329586029053 1.992233991622925 3.823799610137939 C 1.992233991622925 3.418269634246826 2.322164058685303 3.088349580764771 2.727694034576416 3.088349580764771 L 10.22405433654785 3.088349580764771 C 10.62958431243896 3.088349580764771 10.95951366424561 3.418269634246826 10.95951366424561 3.823799610137939 C 10.95951366424561 4.229329586029053 10.62958431243896 4.559249401092529 10.22405433654785 4.559249401092529 Z" stroke="none" fill="#fd7522"/>
        </g>
      </g>
    </g>
    <g id="button_shape_round-2" data-name="button shape round" transform="translate(-21.643 20)" fill="#fff" stroke="#fd7522" stroke-width="2">
      <rect width="15" height="15" rx="7.5" stroke="none"/>
      <rect x="1" y="1" width="13" height="13" rx="6.5" fill="none"/>
    </g>
    <path id="Union_21" data-name="Union 21" d="M3.306,3.306h0v0h0v0Z" transform="translate(-17.448 24.194)" fill="none" stroke="#fd7522" stroke-linecap="round" stroke-linejoin="round" stroke-width="1"/>
  </g>
</svg>
