<svg id="icons_camera" xmlns="http://www.w3.org/2000/svg" width="15.811" height="12.936" viewBox="0 0 15.811 12.936">
  <path id="photo" d="M13.586,4.825H13.3a.691.691,0,0,1-.647-.431L11.79,2.74A1.358,1.358,0,0,0,10.5,1.95H6.543A1.514,1.514,0,0,0,5.25,2.74L4.459,4.393a.691.691,0,0,1-.647.431H3.525A2.883,2.883,0,0,0,.65,7.7v4.312a2.883,2.883,0,0,0,2.875,2.875H13.586a2.883,2.883,0,0,0,2.875-2.875V7.7A2.883,2.883,0,0,0,13.586,4.825ZM8.556,12.012A2.875,2.875,0,1,1,11.43,9.137,2.883,2.883,0,0,1,8.556,12.012Z" transform="translate(-0.65 -1.95)" fill="#fd7522"/>
</svg>
