<svg width="14" height="15" viewBox="0 0 14 15" fill="none" xmlns="http://www.w3.org/2000/svg">
<path fill-rule="evenodd" clip-rule="evenodd" d="M12 7C12 9.968 9.834 12.439 7 12.916V14C7 14.552 6.553 15 6 15C5.447 15 5 14.552 5 14V12.916C4.81636 12.8851 4.63552 12.8458 4.45789 12.7986L6.10788 10.9986C8.26419 10.9412 10 9.16993 10 7C10 6.897 10.0156 6.79763 10.0445 6.7041L10.6224 6.07368C10.7388 6.02618 10.8663 6 11 6C11.553 6 12 6.448 12 7ZM13.0642 2.05887L13.1057 2.01359L12 1L8 5.36364V2C8 0.895 7.105 0 6 0C4.895 0 4 0.895 4 2V7C4 7.71689 4.37671 8.3454 4.94308 8.69846L3.58121 10.1841C2.62086 9.45291 2 8.29775 2 7C2 6.448 1.553 6 1 6C0.447 6 0 6.448 0 7C0 8.88018 0.869218 10.5609 2.22684 11.6616L1 13L2.04151 13.9547L13 2L13.0642 2.05887Z" fill="black"/>
</svg>
