<svg xmlns="http://www.w3.org/2000/svg" width="297.404" height="423.045" viewBox="0 0 297.404 423.045">
  <g id="mute_on" data-name="mute on" transform="translate(-592.487 -16.173)">
    <path id="Path_16" data-name="Path 16" d="M673.8,149.32c0-22.16-.16-44.33.04-66.49.25-28.22,18.51-53.38,45.26-62.84a67.583,67.583,0,0,1,89.57,63.67c.15,43.99.25,87.99-.03,131.98-.24,37.57-30.61,67.57-67.58,67.37-37.22-.2-66.97-30.08-67.23-67.7-.15-22-.03-43.99-.03-65.99Z"/>
    <path id="Path_17" data-name="Path 17" d="M724.07,405.51c.13-2.18.32-3.8.32-5.42.02-11.83-.16-23.67.11-35.5.09-4.1-1.39-5.29-5.26-5.86-61.72-9.15-111.64-56.41-123.86-117.56-1.91-9.58-2.51-19.49-2.88-29.28a16.322,16.322,0,0,1,16.23-17.29c9.62-.19,17,6.8,17.22,16.9.71,32.37,12.34,59.99,35.34,82.84,59.41,59.02,163.95,33.33,189.25-46.46,3.87-12.2,5.54-24.64,6.04-37.37.28-7.2,4.25-12.18,10.98-14.65,6.77-2.48,13.38-1.26,17.71,4.3a22.626,22.626,0,0,1,4.62,13.12c-.5,42.12-16.25,77.85-46.77,106.8-22.65,21.49-49.72,34.34-80.67,38.78-3.24.47-4.52,1.56-4.47,4.99.18,12.33.21,24.67-.02,37-.07,3.88,1.34,4.81,4.94,4.72,8.49-.21,17-.13,25.5-.03,10.2.12,17.5,7.06,17.59,16.56.09,9.56-7.03,16.95-17.15,17q-47.745.24-95.5.01a16.544,16.544,0,0,1-16.86-16.8c-.04-9.25,7.21-16.59,16.86-16.77,8.33-.16,16.67-.04,25-.04h5.75Z"/>
  </g>
</svg>
