<svg xmlns="http://www.w3.org/2000/svg" width="369.69" height="423.12" viewBox="0 0 369.69 423.12">
  <g id="mute_off" data-name="mute off" transform="translate(0.011 0.001)">
    <path id="Path_18" data-name="Path 18" d="M201.67,389.24c10.42,0,20.05.02,29.69,0,6.43-.02,11.8,2.22,15.43,7.64a16.675,16.675,0,0,1-12.66,26c-5.64.42-11.33.16-16.99.16q-39.24,0-78.49-.01c-11.29-.02-18.67-6.9-18.56-17.08.1-9.77,7.64-16.57,18.64-16.67,9.48-.08,18.97-.02,29.24-.02v-8.5c0-11-.04-22,.02-32.99.01-2.52-.08-4.41-3.41-4.86-22.67-3.01-43.45-11.17-62.86-23.94-1.37,1.28-2.71,2.46-3.98,3.72q-33.78,33.72-67.55,67.46c-7.94,7.92-18.2,8.38-25.26,1.27-7.02-7.07-6.53-17.53,1.28-25.33Q153.96,218.385,301.74,70.7q18.915-18.9,37.79-37.84c7.84-7.82,18.13-8.22,25.29-1.05,6.83,6.83,6.47,17.29-1.15,24.93q-53.295,53.43-106.75,106.7c-3.32,3.3-4.82,6.57-4.71,11.32.24,10.32.61,20.73-.47,30.96-4.72,44.62-47.39,71.59-89.81,57.25-1.41-.48-3.85-.33-4.79.58-10.25,9.97-20.29,20.14-31.56,31.43,8.94,3.73,16.89,7.85,25.31,10.44,72.72,22.34,146.03-29.9,148.95-105.93.06-1.66.16-3.33.31-4.99.81-9.39,8.15-16.08,17.3-15.81,9.19.27,16.08,7.27,16.21,16.89a136.615,136.615,0,0,1-13.07,61.08c-23,48.3-61.08,77.06-113.89,85.98-4.02.68-5.18,2.05-5.12,6,.22,13.3.09,26.6.09,40.62Z"/>
    <path id="Path_19" data-name="Path 19" d="M121.45,224.73c-1.34-7.93-3.77-15.86-3.83-23.8-.37-45.13-.62-90.28-.04-135.41C118.04,29.07,148.93-.18,185.4,0c36.02.18,66.03,29.82,66.85,66.14.2,8.66.26,17.33-.07,25.98a11.159,11.159,0,0,1-2.92,6.86q-58.47,58.785-117.15,117.36c-2.89,2.9-5.14,6.43-7.69,9.66-.99-.43-1.98-.85-2.97-1.28Z"/>
    <path id="Path_20" data-name="Path 20" d="M64.6,284.61c-5.72-10.33-11.24-19.05-15.56-28.33a141.583,141.583,0,0,1-13.1-59.6c-.06-10.56,6.78-18,16.47-18.19,9.92-.2,17.02,7.14,17.24,17.93.43,21.3,5.88,41.14,17.21,59.23,1.76,2.81,1.52,4.48-.79,6.78-6.93,6.89-13.62,14.03-21.48,22.18Z"/>
  </g>
</svg>
