<svg xmlns="http://www.w3.org/2000/svg" width="23.46" height="24.602" viewBox="0 0 23.46 24.602">
  <g id="notification_icon" data-name="notification icon" transform="translate(-6.393 -5.596)">
    <g id="Group_18876" data-name="Group 18876" transform="translate(6.393 5.596)">
      <path id="icons8-notification" d="M16.559,4.011a9.319,9.319,0,0,0-8.721,9.384v4.439L6.219,21.091l-.008.018a2.165,2.165,0,0,0,1.934,3.048h5.191a3.665,3.665,0,0,0,7.33,0h5.189a2.166,2.166,0,0,0,1.935-3.048l-.008-.018-1.619-3.257V13.162A9.178,9.178,0,0,0,16.559,4.011Zm.086,1.83a7.314,7.314,0,0,1,7.685,7.321v4.886a.916.916,0,0,0,.1.408l1.706,3.433a.284.284,0,0,1-.277.434H8.145a.283.283,0,0,1-.276-.434h0l1.706-3.432a.916.916,0,0,0,.1-.408V13.395A7.479,7.479,0,0,1,16.645,5.841ZM15.168,24.157h3.665a1.832,1.832,0,1,1-3.665,0Z" transform="translate(-6.015 -3.219)" fill="#1d3857"/>
      <g id="Ellipse_9" data-name="Ellipse 9" transform="translate(12.46)" fill="#ff7f00" stroke="#fff" stroke-width="1.5">
        <circle cx="5.5" cy="5.5" r="5.5" stroke="none"/>
        <circle cx="5.5" cy="5.5" r="4.75" fill="none"/>
      </g>
    </g>
  </g>
</svg>
