<svg id="open_eye" xmlns="http://www.w3.org/2000/svg" width="20.089" height="20.089" viewBox="0 0 20.089 20.089">
  <rect id="Rectangle_1871" data-name="Rectangle 1871" width="20.089" height="20.089" fill="none"/>
  <path id="open_eye-2" data-name="open_eye" d="M5.515,7.255a3.906,3.906,0,1,1,3.906,3.907A3.908,3.908,0,0,1,5.515,7.255Zm1.449,0A2.456,2.456,0,1,0,9.421,4.8,2.457,2.457,0,0,0,6.964,7.255ZM0,8.923a10.044,10.044,0,0,1,19.885-.552,1.091,1.091,0,0,1-.771.481,1.294,1.294,0,0,1-.661-.278,8.6,8.6,0,0,0-17.02.566.9.9,0,0,1-.567.217A1.283,1.283,0,0,1,0,8.923Z" transform="translate(0.002 4.463)" fill="#707070"/>
</svg>
