<svg xmlns="http://www.w3.org/2000/svg" width="61.143" height="50.552" viewBox="0 0 61.143 50.552">
  <g id="image_icon" data-name="image icon" transform="translate(-162.435 -139.314)">
    <path id="images" d="M18.956,11.585a3.16,3.16,0,1,1,3.16,3.16A3.155,3.155,0,0,1,18.956,11.585Zm31.6-1.053V23.17A10.536,10.536,0,0,1,40.019,33.7H21.062A10.536,10.536,0,0,1,10.531,23.17V10.532A10.536,10.536,0,0,1,21.062,0H40.019A10.536,10.536,0,0,1,50.551,10.532ZM14.743,23.17A6.34,6.34,0,0,0,16.365,27.4L27.4,16.366a5.6,5.6,0,0,1,7.73,0l2.191,2.191a1.284,1.284,0,0,0,1.79,0l7.225-7.225v-.8a6.338,6.338,0,0,0-6.319-6.319H21.062a6.338,6.338,0,0,0-6.319,6.319Zm31.6,0V17.293l-4.255,4.255a5.6,5.6,0,0,1-7.73,0l-2.191-2.191a1.284,1.284,0,0,0-1.79,0L20.283,29.447a4.707,4.707,0,0,0,.779.042H40.019A6.338,6.338,0,0,0,46.338,23.17ZM38.1,38a2.113,2.113,0,0,0-2.591,1.474L34.9,41.706a6.206,6.206,0,0,1-2.97,3.812,6.283,6.283,0,0,1-4.8.611L8.845,41.116a6.32,6.32,0,0,1-4.423-7.772l2.022-7.5a2.108,2.108,0,0,0-4.065-1.116l-2,7.478A10.553,10.553,0,0,0,7.75,45.16l18.283,5.013a10.681,10.681,0,0,0,2.8.379A10.575,10.575,0,0,0,38.987,42.8l.611-2.233a2.113,2.113,0,0,0-1.474-2.591Z" transform="translate(162.434 139.314)" fill="#b7b7b7"/>
    <path id="Union_10" data-name="Union 10" d="M529.783,4.783,525,9.566l4.783-4.783L525,0l4.783,4.783L534.566,0l-4.783,4.783,4.783,4.783Z" transform="translate(-164.01 551.322) rotate(-45)" fill="none" stroke="#b7b7b7" stroke-linecap="round" stroke-linejoin="round" stroke-width="4"/>
  </g>
</svg>
