<svg xmlns="http://www.w3.org/2000/svg" width="33" height="33" viewBox="0 0 33 33">
  <g id="send" transform="translate(-403 -741)">
    <rect id="button_shape_round" data-name="button shape round" width="33" height="33" rx="16.5" transform="translate(403 741)" fill="#00BAA3"/>
    <path id="paper-plane" d="M17.339.662a2.224,2.224,0,0,0-2.1-.6l-12,2.527A3.746,3.746,0,0,0,1.1,8.949l1.288,1.288a.75.75,0,0,1,.22.531v2.376a2.224,2.224,0,0,0,.225.964l-.006.005.019.019a2.25,2.25,0,0,0,1.021,1.017l.019.019.005-.006a2.224,2.224,0,0,0,.964.225H7.232a.75.75,0,0,1,.53.219L9.05,16.894A3.722,3.722,0,0,0,11.69,18a3.787,3.787,0,0,0,1.2-.2A3.7,3.7,0,0,0,15.4,14.812L17.933,2.786A2.231,2.231,0,0,0,17.339.662ZM3.45,9.178,2.161,7.89A2.2,2.2,0,0,1,1.62,5.585,2.233,2.233,0,0,1,3.495,4.066l11.88-2.5L4.107,12.834V10.768A2.233,2.233,0,0,0,3.45,9.178Zm10.478,5.377a2.25,2.25,0,0,1-3.817,1.284l-1.29-1.29a2.233,2.233,0,0,0-1.589-.658H5.166L16.436,2.625Z" transform="translate(410.499 749)" fill="#fff"/>
  </g>
</svg>
