<svg xmlns="http://www.w3.org/2000/svg" width="62" height="73.482" viewBox="0 0 62 73.482">
  <g id="shield" transform="translate(-40 0)">
    <path id="Path_5883" data-name="Path 5883" d="M100.23,11.9,72.1.22a2.87,2.87,0,0,0-2.2,0L41.77,11.9A2.871,2.871,0,0,0,40,14.55v14.2A48.069,48.069,0,0,0,69.915,73.269a2.871,2.871,0,0,0,2.169,0A48.069,48.069,0,0,0,102,28.747V14.55A2.87,2.87,0,0,0,100.23,11.9ZM96.259,28.747A42.338,42.338,0,0,1,71,67.494,42.339,42.339,0,0,1,45.741,28.747V16.466L71,5.978,96.259,16.466Z" transform="translate(0 0)" fill="#1E1B1B"/>
    <path id="Path_5884" data-name="Path 5884" d="M64.26,33.1,76.6,20.767a2.87,2.87,0,1,1,4.059,4.059L66.289,39.193a2.87,2.87,0,0,1-4.059,0l-8.022-8.022a2.87,2.87,0,1,1,4.059-4.059Z" transform="translate(3.568 6.639)"/>
  </g>
</svg>
