<svg xmlns="http://www.w3.org/2000/svg" xmlns:xlink="http://www.w3.org/1999/xlink" width="428" height="926" viewBox="0 0 428 926">
  <defs>
    <clipPath id="clip-Splash_Teacher">
      <rect width="428" height="926"/>
    </clipPath>
  </defs>
  <g id="Splash_Teacher" data-name="Splash Teacher" clip-path="url(#clip-Splash_Teacher)">
    <rect width="428" height="926" fill="#fff"/>
    <path id="Rectangle_17488" data-name="Rectangle 17488" d="M0,0H428a0,0,0,0,1,0,0V570a67,67,0,0,1-67,67H67A67,67,0,0,1,0,570V0A0,0,0,0,1,0,0Z" fill="#00baa3"/>
    <g id="Group_19930" data-name="Group 19930" transform="translate(137.116 693.502)">
      <g id="Group_19917" data-name="Group 19917" transform="translate(0 0)">
        <g id="Group_19913" data-name="Group 19913" transform="translate(0 0)">
          <g id="Group_19910" data-name="Group 19910" transform="translate(27.145)">
            <path id="Path_32167" data-name="Path 32167" d="M489.765,298.084s-9.588-20.773-17.484-23.243l-17.062,17.981s19.191,18.6,17.583,38.934c0,0-4.084-24.173-25.716-37.695l24.135-25.43S488.588,280.3,489.765,298.084Z" transform="translate(-423.24 -268.631)" fill="#00baa3"/>
            <path id="Path_32168" data-name="Path 32168" d="M430.871,293.76,412.51,309.242s22.961,13.2,29.286,38.528c0,0-8.4-20.473-37.42-37.289l21.811-18.767S430.9,294,430.871,293.76Z" transform="translate(-395.627 -283.555)" fill="#00baa3"/>
            <path id="Path_32169" data-name="Path 32169" d="M388.246,350.153l-8.622,7.364c31.461,11.737,45.386,30.049,45.386,30.049-16.86-25.9-37.253-31.288-37.253-31.288l4.361-3.777Z" transform="translate(-379.624 -321.337)" fill="#00baa3"/>
            <rect id="Rectangle_17481" data-name="Rectangle 17481" width="18.918" height="1.312" transform="matrix(0.698, -0.716, 0.716, 0.698, 37.942, 25.078)" fill="#00baa3"/>
            <rect id="Rectangle_17482" data-name="Rectangle 17482" width="18.918" height="1.312" transform="matrix(0.698, -0.716, 0.716, 0.698, 41.019, 28.698)" fill="#00baa3"/>
            <path id="Path_32170" data-name="Path 32170" d="M503.532,350.387l-.94-.916,6.191-5.806.939.916Z" transform="translate(-459.126 -317.143)" fill="#00baa3"/>
            <path id="Path_32171" data-name="Path 32171" d="M510.191,358.761l-.94-.916,6.191-5.806.94.916Z" transform="translate(-463.431 -322.556)" fill="#00baa3"/>
            <path id="Path_32172" data-name="Path 32172" d="M515.352,368.939l-.94-.916,6.191-5.806.939.916Z" transform="translate(-466.768 -329.137)" fill="#00baa3"/>
          </g>
          <g id="Group_19912" data-name="Group 19912" transform="translate(80.01 7.344)">
            <path id="Path_32173" data-name="Path 32173" d="M587.643,346.859s.008,1.474-.033,1.474c-4.563,0-38.072,6.136-58.428,27.428l23.428-39.824c3.589-.623,10.972-2.241,19.93,1.023A39.68,39.68,0,0,1,587.643,346.859Z" transform="translate(-529.182 -318.874)" fill="#00baa3"/>
            <g id="Group_19911" data-name="Group 19911" transform="translate(22.967 0)">
              <path id="Path_32174" data-name="Path 32174" d="M614.75,300.951l-16.957,11.47-3.635,1.763c10.907-3.837,29.035,3.069,35.522,10.746l-.885-2.491-7.623-19.581A8.987,8.987,0,0,1,614.75,300.951Z" transform="translate(-594.158 -296.871)" fill="#f29220"/>
              <path id="Path_32175" data-name="Path 32175" d="M658.948,295.382a7.332,7.332,0,0,1-3.66-.148,6.715,6.715,0,0,1-2.422-1.373c-.413-.362-.406-.467-.01-.837,1.024-.957,2.04-1.923,3.064-2.879a7.794,7.794,0,0,1,.616-.5c.548-.415.923-.29,1.088.37.335,1.344.663,2.691.995,4.036C658.722,294.475,658.827,294.9,658.948,295.382Z" transform="translate(-631.915 -289.408)" fill="#424242"/>
            </g>
            <path id="Path_32176" data-name="Path 32176" d="M635.306,304.5l-11.762,11.069a42.91,42.91,0,0,1,8.167,1.685l3.924-12.56S635.339,304.605,635.306,304.5Z" transform="translate(-590.189 -299.165)" fill="#f9ae4b"/>
            <path id="Path_32177" data-name="Path 32177" d="M662.011,307.017l4.485,17.657a51.645,51.645,0,0,0-8.127-4.439L661.629,307S661.925,307.088,662.011,307.017Z" transform="translate(-612.704 -300.782)" fill="#f9ae4b"/>
          </g>
          <path id="Path_32178" data-name="Path 32178" d="M450.6,371.11s-51.628,7.154-77.873,39.772c-25.359-32.345-75.9-41.8-75.9-41.8a103.58,103.58,0,0,1,15.809,6.889c35.849,19.17,60.074,56.148,60.074,56.148l13.57-17.911C400.194,399.43,423.285,379.039,450.6,371.11Z" transform="translate(-296.83 -334.368)" fill="#00baa3"/>
        </g>
      </g>
    </g>
    <text id="VTEACH" transform="translate(214 834)" fill="#424242" font-size="36" font-family="SofiaPro-Medium, Sofia Pro" font-weight="500"><tspan x="-66.636" y="0">VTEACH</tspan></text>
    <text id="Teacher" transform="translate(214 862)" fill="#797979" font-size="16" font-family="SofiaPro-Medium, Sofia Pro" font-weight="500" letter-spacing="0.15em"><tspan x="-41.824" y="0">TEACHER</tspan></text>
    <circle id="Ellipse_477" data-name="Ellipse 477" cx="17" cy="17" r="17" transform="translate(343 237)" fill="#fff" opacity="0.206"/>
    <circle id="Ellipse_493" data-name="Ellipse 493" cx="13" cy="13" r="13" transform="translate(285 97)" fill="#fff" opacity="0.206"/>
    <circle id="Ellipse_482" data-name="Ellipse 482" cx="17" cy="17" r="17" transform="translate(294 463)" fill="#fff" opacity="0.206"/>
    <circle id="Ellipse_483" data-name="Ellipse 483" cx="17" cy="17" r="17" transform="translate(29 42)" fill="#fff" opacity="0.206"/>
    <circle id="Ellipse_479" data-name="Ellipse 479" cx="17" cy="17" r="17" transform="translate(132 434)" fill="#fff" opacity="0.206"/>
    <circle id="Ellipse_478" data-name="Ellipse 478" cx="5" cy="5" r="5" transform="translate(355 16)" fill="#fff" opacity="0.206"/>
    <circle id="Ellipse_481" data-name="Ellipse 481" cx="5" cy="5" r="5" transform="translate(377 227)" fill="#fff" opacity="0.206"/>
    <circle id="Ellipse_491" data-name="Ellipse 491" cx="5" cy="5" r="5" transform="translate(42 362)" fill="#fff" opacity="0.206"/>
    <circle id="Ellipse_492" data-name="Ellipse 492" cx="5" cy="5" r="5" transform="translate(53 538)" fill="#fff" opacity="0.206"/>
    <circle id="Ellipse_485" data-name="Ellipse 485" cx="5" cy="5" r="5" transform="translate(190 560)" fill="#fff" opacity="0.206"/>
    <circle id="Ellipse_480" data-name="Ellipse 480" cx="5" cy="5" r="5" transform="translate(190 207)" fill="#fff" opacity="0.206"/>
    <circle id="Ellipse_484" data-name="Ellipse 484" cx="5" cy="5" r="5" transform="translate(122 54)" fill="#fff" opacity="0.206"/>
    <g id="Group_20181" data-name="Group 20181" transform="translate(-20)">
      <g id="Group_20180" data-name="Group 20180" transform="translate(0 -13.795)">
        <path id="Path_32182" data-name="Path 32182" d="M250.744,648.373,79.236,577.658,198.859,450.939,53.511,363.47,198.148,237.945,0,141.431,93.96,11.611" transform="matrix(-0.883, -0.469, 0.469, -0.883, 175.582, 705.571)" fill="none" stroke="#0a8b7b" stroke-linecap="round" stroke-linejoin="round" stroke-width="2" stroke-dasharray="6" opacity="0.723"/>
        <g id="Group_19925" data-name="Group 19925" transform="translate(178.426 175.795)">
          <circle id="Ellipse_474" data-name="Ellipse 474" cx="39" cy="39" r="39" fill="#fff" opacity="0.201"/>
          <circle id="Ellipse_487" data-name="Ellipse 487" cx="30" cy="30" r="30" transform="translate(9 9)" fill="#fff"/>
        </g>
        <g id="Group_19926" data-name="Group 19926" transform="translate(334.426 113.795)">
          <circle id="Ellipse_475" data-name="Ellipse 475" cx="39" cy="39" r="39" fill="#fff" opacity="0.201"/>
          <circle id="Ellipse_488" data-name="Ellipse 488" cx="30" cy="30" r="30" transform="translate(9 9)" fill="#fff"/>
          <path id="users-class" d="M0,29.166v2.651H2.651V29.166A1.327,1.327,0,0,1,3.977,27.84H7.954A1.327,1.327,0,0,1,9.28,29.166v2.651h2.651V29.166a1.327,1.327,0,0,1,1.326-1.326h5.3a1.327,1.327,0,0,1,1.326,1.326v2.651h2.651V29.166a1.327,1.327,0,0,1,1.326-1.326H27.84a1.327,1.327,0,0,1,1.326,1.326v2.651h2.651V29.166a3.982,3.982,0,0,0-3.977-3.977H23.863a3.952,3.952,0,0,0-2.651,1.034,3.945,3.945,0,0,0-2.651-1.034h-5.3a3.952,3.952,0,0,0-2.651,1.034,3.945,3.945,0,0,0-2.651-1.034H3.977A3.982,3.982,0,0,0,0,29.166Zm22.537-8.617a3.314,3.314,0,1,1,3.314,3.314A3.314,3.314,0,0,1,22.537,20.549ZM3.977,0H27.84a3.982,3.982,0,0,1,3.977,3.977V19.956a6.562,6.562,0,0,0-2.651-4.517V3.977A1.327,1.327,0,0,0,27.84,2.651H3.977A1.327,1.327,0,0,0,2.651,3.977V15.45A6.662,6.662,0,0,0,0,19.956V3.977A3.982,3.982,0,0,1,3.977,0ZM15.909,23.863a3.314,3.314,0,1,1,3.314-3.314A3.314,3.314,0,0,1,15.909,23.863ZM2.651,20.549a3.314,3.314,0,1,1,3.314,3.314A3.314,3.314,0,0,1,2.651,20.549Z" transform="translate(23.208 22.975)" fill="#00baa3"/>
        </g>
        <g id="Group_19927" data-name="Group 19927" transform="translate(256.426 314.795)">
          <circle id="Ellipse_473" data-name="Ellipse 473" cx="39" cy="39" r="39" fill="#fff" opacity="0.201"/>
          <circle id="Ellipse_489" data-name="Ellipse 489" cx="30" cy="30" r="30" transform="translate(9 9)" fill="#fff"/>
          <path id="workshop" d="M2.576,3.219A3.219,3.219,0,1,1,5.8,6.439,3.219,3.219,0,0,1,2.576,3.219ZM18.029,10.3a1.288,1.288,0,0,0,0-2.576H5.151A5.156,5.156,0,0,0,0,12.878v3.863a1.288,1.288,0,1,0,2.576,0V12.878A2.578,2.578,0,0,1,5.151,10.3H7.727v6.439a1.288,1.288,0,0,0,2.576,0V10.3ZM25.112,0H12.878a1.288,1.288,0,0,0,0,2.576H25.112a3.223,3.223,0,0,1,3.219,3.219v6.439a3.223,3.223,0,0,1-3.219,3.219h-.644V14.165a1.287,1.287,0,0,0-1.288-1.288H20.6a1.287,1.287,0,0,0-1.288,1.288v1.288H14.166a1.288,1.288,0,0,0,0,2.576H25.112a5.8,5.8,0,0,0,5.795-5.795V5.795A5.8,5.8,0,0,0,25.112,0ZM26.4,27.043a5.72,5.72,0,0,0-4.153,1.688,1.288,1.288,0,0,0,1.867,1.776,3.553,3.553,0,0,1,4.573,0,1.288,1.288,0,1,0,1.867-1.775A5.718,5.718,0,0,0,26.4,27.044Zm-10.946,0A5.72,5.72,0,0,0,11.3,28.731a1.288,1.288,0,0,0,1.867,1.776,3.553,3.553,0,0,1,4.573,0,1.288,1.288,0,0,0,1.867-1.775,5.718,5.718,0,0,0-4.153-1.688Zm-10.946,0A5.72,5.72,0,0,0,.354,28.731a1.288,1.288,0,0,0,1.867,1.776,3.553,3.553,0,0,1,4.573,0,1.288,1.288,0,1,0,1.867-1.775,5.718,5.718,0,0,0-4.153-1.688ZM7.083,23.18a2.576,2.576,0,1,0-2.576,2.576A2.575,2.575,0,0,0,7.083,23.18Zm10.946,0a2.576,2.576,0,1,0-2.576,2.576A2.575,2.575,0,0,0,18.029,23.18Zm10.946,0A2.576,2.576,0,1,0,26.4,25.755,2.575,2.575,0,0,0,28.975,23.18Z" transform="translate(23.969 24.122)" fill="#00baa3"/>
        </g>
        <g id="Group_19928" data-name="Group 19928" transform="translate(71.426 362.795)">
          <circle id="Ellipse_476" data-name="Ellipse 476" cx="39" cy="39" r="39" fill="#fff" opacity="0.201"/>
          <circle id="Ellipse_490" data-name="Ellipse 490" cx="30" cy="30" r="30" transform="translate(9 9)" fill="#fff"/>
          <g id="receipt" transform="translate(26.5 22.333)">
            <path id="Path_32179" data-name="Path 32179" d="M9.944,0H21.056A6.953,6.953,0,0,1,28,6.944v25a1.389,1.389,0,0,1-2.172,1.146l-2.925-2-2.925,2a1.389,1.389,0,0,1-1.569,0l-2.917-2-2.917,2a1.389,1.389,0,0,1-1.571,0l-2.917-2-2.917,2A1.389,1.389,0,0,1,3,31.944v-25A6.953,6.953,0,0,1,9.944,0ZM5.778,29.306l1.528-1.044a1.389,1.389,0,0,1,1.572,0l2.917,2,2.917-2a1.389,1.389,0,0,1,1.571,0l2.917,2,2.917-2a1.389,1.389,0,0,1,1.568,0l1.539,1.044V6.944a4.167,4.167,0,0,0-4.167-4.167H9.944A4.167,4.167,0,0,0,5.778,6.944Z" transform="translate(-3)" fill="#00baa3"/>
            <rect id="Rectangle_17483" data-name="Rectangle 17483" width="13" height="3" rx="1" transform="translate(6 11.333)" fill="#00baa3"/>
            <rect id="Rectangle_17484" data-name="Rectangle 17484" width="11" height="3" rx="1" transform="translate(8 16.333)" fill="#00baa3"/>
          </g>
        </g>
        <g id="Group_19931" data-name="Group 19931" transform="translate(197.426 537.795)">
          <g id="Group_19929" data-name="Group 19929" transform="translate(0)">
            <circle id="Ellipse_476-2" data-name="Ellipse 476" cx="30" cy="30" r="30" transform="translate(9 9)" fill="#fff"/>
            <circle id="Ellipse_486" data-name="Ellipse 486" cx="39" cy="39" r="39" fill="#fff" opacity="0.201"/>
          </g>
          <path id="usd-circle" d="M18.97,0a18.97,18.97,0,1,0,18.97,18.97A18.991,18.991,0,0,0,18.97,0Zm0,34.778A15.808,15.808,0,1,1,34.778,18.97,15.826,15.826,0,0,1,18.97,34.778Zm6.323-12.646a4.748,4.748,0,0,1-4.742,4.742v1.581a1.581,1.581,0,1,1-3.162,0V26.874h-.424a4.759,4.759,0,0,1-4.107-2.37,1.58,1.58,0,0,1,2.735-1.584,1.586,1.586,0,0,0,1.371.792h3.585a1.581,1.581,0,0,0,1.581-1.581,1.215,1.215,0,0,0-1.018-1.2l-4.807-.8a4.365,4.365,0,0,1-3.66-4.32,4.748,4.748,0,0,1,4.742-4.742V9.485a1.581,1.581,0,0,1,3.162,0v1.581h.424a4.76,4.76,0,0,1,4.107,2.371,1.58,1.58,0,1,1-2.735,1.582,1.588,1.588,0,0,0-1.371-.79H17.389a1.582,1.582,0,0,0-1.581,1.581,1.215,1.215,0,0,0,1.018,1.2l4.807.8a4.365,4.365,0,0,1,3.66,4.32Z" transform="translate(20.03 20.03)" fill="#00baa3"/>
        </g>
        <g id="Polygon_1" data-name="Polygon 1" transform="matrix(-0.848, 0.53, -0.53, -0.848, 309.259, 62.81)" fill="#00baa3" stroke-linecap="round" stroke-linejoin="round">
          <path d="M 16.2901496887207 15 L 1.709851264953613 15 L 9 2.039735555648804 L 16.2901496887207 15 Z" stroke="none"/>
          <path d="M 9 4.079453468322754 L 3.419692039489746 14 L 14.58030700683594 14 L 9 4.079453468322754 M 9 0 L 18 16 L 0 16 L 9 0 Z" stroke="none" fill="#129a89"/>
        </g>
        <g id="Polygon_2" data-name="Polygon 2" transform="translate(321.464 183.199) rotate(137)" fill="#00baa3" stroke-linecap="round" stroke-linejoin="round">
          <path d="M 16.2901496887207 15 L 1.709851264953613 15 L 9 2.039735555648804 L 16.2901496887207 15 Z" stroke="none"/>
          <path d="M 9 4.079453468322754 L 3.419692039489746 14 L 14.58030700683594 14 L 9 4.079453468322754 M 9 0 L 18 16 L 0 16 L 9 0 Z" stroke="none" fill="#129a89"/>
        </g>
        <g id="Polygon_3" data-name="Polygon 3" transform="translate(270.095 294.898) rotate(149)" fill="#00baa3" stroke-linecap="round" stroke-linejoin="round">
          <path d="M 16.29014778137207 15 L 1.709850311279297 15 L 8.999999046325684 2.039735555648804 L 16.29014778137207 15 Z" stroke="none"/>
          <path d="M 8.999999046325684 4.079453468322754 L 3.41969108581543 14 L 14.58030700683594 14 L 8.999999046325684 4.079453468322754 M 8.999999046325684 0 L 18 16 L -1.9073486328125e-06 16 L 8.999999046325684 0 Z" stroke="none" fill="#129a89"/>
        </g>
        <g id="Polygon_4" data-name="Polygon 4" transform="translate(226.018 380.067) rotate(135)" fill="#00baa3" stroke-linecap="round" stroke-linejoin="round">
          <path d="M 16.2901496887207 15 L 1.709851264953613 15 L 9 2.039735555648804 L 16.2901496887207 15 Z" stroke="none"/>
          <path d="M 9 4.079453468322754 L 3.419692039489746 14 L 14.58030700683594 14 L 9 4.079453468322754 M 9 0 L 18 16 L 0 16 L 9 0 Z" stroke="none" fill="#129a89"/>
        </g>
        <g id="Polygon_5" data-name="Polygon 5" transform="translate(184.21 485.225) rotate(140)" fill="#00baa3" stroke-linecap="round" stroke-linejoin="round">
          <path d="M 16.2901496887207 15 L 1.709851264953613 15 L 9 2.039735078811646 L 16.2901496887207 15 Z" stroke="none"/>
          <path d="M 9 4.079452514648438 L 3.419692039489746 14 L 14.58030700683594 14 L 9 4.079452514648438 M 9 -9.5367431640625e-07 L 18 16 L 0 16 L 9 -9.5367431640625e-07 Z" stroke="none" fill="#129a89"/>
        </g>
      </g>
      <line id="Line_23" data-name="Line 23" x1="46" y2="41" transform="translate(197.834 176.488) rotate(11)" fill="none" stroke="#33c8b6" stroke-width="4"/>
      <path id="Path_32836" data-name="Path 32836" d="M-328.648,195.542l5.355,5.5,11.628-12.938" transform="translate(531.296 -5.153)" fill="none" stroke="#00baa3" stroke-width="3"/>
      <path id="Union_9" data-name="Union 9" d="M530.473,5.472,525,10.945l5.473-5.472L525,0l5.473,5.472L535.945,0l-5.473,5.472,5.473,5.472Z" transform="translate(-304.692 206.245)" fill="none" stroke="#00baa3" stroke-width="3"/>
    </g>
  </g>
</svg>
