<svg id="user-add" xmlns="http://www.w3.org/2000/svg" width="36.464" height="36.424" viewBox="0 0 36.464 36.424">
  <path id="Path_32849" data-name="Path 32849" d="M351.969,175.225h-3.039v-3.039a1.519,1.519,0,1,0-3.039,0v3.039h-3.039a1.519,1.519,0,1,0,0,3.039h3.039V181.3a1.519,1.519,0,1,0,3.039,0v-3.039h3.039a1.519,1.519,0,0,0,0-3.039Z" transform="translate(-317.025 -158.552)" fill="#acacac"/>
  <ellipse id="Ellipse_627" data-name="Ellipse 627" cx="9.253" cy="9.096" rx="9.253" ry="9.096" transform="translate(4.431)" fill="#acacac"/>
  <path id="Path_32850" data-name="Path 32850" d="M13.674,298.667A13.689,13.689,0,0,0,0,312.341a1.519,1.519,0,0,0,1.519,1.519H25.828a1.519,1.519,0,0,0,1.519-1.519A13.689,13.689,0,0,0,13.674,298.667Z" transform="translate(0 -277.436)" fill="#acacac"/>
</svg>
