<svg xmlns="http://www.w3.org/2000/svg" width="24.001" height="24" viewBox="0 0 24.001 24">
  <path id="video-off" d="M15,19a1,1,0,0,1-1,1H5a5.006,5.006,0,0,1-5-5V9A5.016,5.016,0,0,1,.625,6.577a1,1,0,0,1,1.749.971A3,3,0,0,0,2,9v6a3,3,0,0,0,3,3h9A1,1,0,0,1,15,19Zm3.637-2.125a1.027,1.027,0,0,1-.129.218l5.2,5.2a1,1,0,1,1-1.414,1.414l-18-18h0l-4-4A1,1,0,1,1,1.708.293L5.415,4H14a4.991,4.991,0,0,1,4.959,4.594l1.757-1.772a1.116,1.116,0,0,1,.109-.1A1.984,1.984,0,0,1,24,8.313v7.319a1.982,1.982,0,0,1-3.175,1.587,1.028,1.028,0,0,1-.106-.092l-1.754-1.752a4.939,4.939,0,0,1-.328,1.5ZM19,12.583l3.026,3.022L22,8.367l-3,3.027v1.189ZM17,9a3,3,0,0,0-3-3H7.414l9.535,9.535A3.06,3.06,0,0,0,17,15V9Z" transform="translate(0 0)"/>
</svg>
