<svg xmlns="http://www.w3.org/2000/svg" width="24" height="23.96" viewBox="0 0 24 23.96">
  <g id="volume_on" data-name="volume on" transform="translate(0 -0.017)">
    <path id="Path_4" data-name="Path 4" d="M2,6A2,2,0,0,0,0,8v8a2,2,0,0,0,2,2H4.8L12,23.977V.017L4.8,6Z"/>
    <path id="Path_5" data-name="Path 5" d="M20,12a5.006,5.006,0,0,0-5-5H14V9h1a3,3,0,0,1,0,6H14v2h1a5.006,5.006,0,0,0,5-5Z"/>
    <path id="Path_6" data-name="Path 6" d="M15,3H14V5h1a7,7,0,0,1,0,14H14v2h1A9,9,0,0,0,15,3Z"/>
  </g>
</svg>
